<svg xmlns="http://www.w3.org/2000/svg" viewBox="0 0 150 102" width="2500" height="1700"><path d="M148.6 84H142c-.3-1.6-.8-3.4-4.1-3.4-2.5 0-3.8.8-3.8 2.2 0 3.1 11.4 1.4 13.9 6.6.5.9.7 2 .7 3.1 0 6-5.1 9.3-10.5 9.3-5.7.2-10.8-1.9-11.4-8.5h6.9c.2 2.5 2.3 3.9 4.9 3.9 2.3 0 4-1.3 4-2.9 0-3.7-12.1-1.4-14.3-7-.4-.8-.7-1.9-.7-3.3 0-4.3 3.4-8 10.5-8.5 5.6 0 9.7 2.7 9.8 8.5z" fill="#231F20"/><path d="m96.4 63.3-29.2-51L88.1 0l37 63.3z"/><path d="M21.2 99.6c-2 1.3-4.4 2.2-7.4 2.2-7.2 0-12.2-5.6-12.3-12.8 0-6.8 5.4-13.5 12.3-13.5 2.8 0 5.2.7 7.3 2.1v-1.8h6v25.5h-6v-1.7zM13.8 96c3.7 0 7.2-3 7.2-7.1 0-3.7-3.2-7.3-7.2-7.3-3.6 0-6.8 3.4-6.8 7.1 0 3.9 3.1 7.2 6.8 7.3" fill="#231F20"/><path d="M50.6 63.3 39.2 44.1 18.3 56.3l4 7z"/><path d="M50.3 67h6.3v34.3h-6.3v-1.6c-2 1.3-4.6 2.1-7.4 2.1-7.1 0-11.8-4.8-13.4-11-1.3-8.6 4.7-15.2 13.4-15.2 2.6 0 5 .8 7.4 2.2zm-7.5 28.9c4.1 0 7.5-3.2 7.5-7.1 0-3.6-3.1-7.2-7.4-7.2-3.8 0-7.3 3.2-7.3 7.1s3.1 7.2 7.2 7.2" fill="#231F20"/><path d="M64.2 21.7 42.9 34.8l16.9 28.5h28z"/><path d="M118 77.6v-1.9h6.3v25.7H118v-1.8c-1.9 1.3-4.4 2.2-7.2 2.2-7.6 0-13.4-5.6-13.4-13.1 0-6.5 5.4-13.1 13.3-13.1 2.6-.1 5 .6 7.3 2m-7.2 18.3c3.9.2 7.1-2.9 7.2-6.8.1-4-3.1-7.5-7.2-7.5-3.6 0-7.2 3.3-7.2 7.1s3 7.2 7.2 7.2M89.1 67h6.1v34.3h-6.1v-1.6c-2 1.3-5 2.1-8.2 2.1-6.4 0-12.5-5.6-12.5-13 0-6.6 5.3-13.3 13.1-13.3 2.6 0 5 .6 7.6 2.3V66.9zm-7.7 28.9c4 0 7.6-3 7.6-7.2 0-3.5-3.1-7.1-7.6-7.1-3.5.1-7 3.2-7 7.1s3.2 7.2 7 7.2m-21.7-29h6.2V73h-6.2zm0 8.8h6.1v25.7h-6.1z" fill="#231F20"/></svg>