<svg xmlns="http://www.w3.org/2000/svg" fill="none" viewBox="0 0 1328 153" height="153" width="1328">
<g clip-path="url(#clip0_1652_13184)">
<path fill="white" d="M1325.33 144.862C1323.8 147.198 1321.09 148.352 1316.47 148.352C1313.17 148.352 1311.05 147.788 1309.71 146.58C1308.45 145.506 1308.02 143.868 1308.02 141.64C1308.02 139.089 1308.55 135.841 1309.9 133.693C1311.43 131.357 1314.11 130.176 1318.73 130.176C1322.03 130.176 1324.18 130.74 1325.52 131.921C1326.76 133.049 1327.27 134.659 1327.27 136.942C1327.27 139.519 1326.7 142.768 1325.36 144.889L1325.33 144.862ZM1324.21 133.451C1323.24 132.404 1321.47 131.921 1318.49 131.921C1315.51 131.921 1313.63 132.458 1312.34 133.478C1311.43 134.337 1310.86 135.492 1310.46 137.022C1310.08 138.499 1309.92 140.056 1309.92 141.506C1309.92 143.063 1310.22 144.244 1310.94 145.103C1311.91 146.15 1313.68 146.634 1316.66 146.634C1319.64 146.634 1321.57 146.07 1322.78 145.023C1323.7 144.191 1324.31 143.036 1324.72 141.506C1325.04 140.083 1325.23 138.499 1325.23 137.022C1325.23 135.438 1324.98 134.31 1324.18 133.451H1324.21ZM1321.74 138.338C1321.39 138.901 1320.72 139.25 1319.72 139.358V139.761C1320.15 139.761 1320.69 139.895 1321.01 140.163C1321.41 140.432 1321.68 140.888 1321.68 141.72V142.096L1321.57 144.003L1321.33 144.298H1319.75L1319.51 144.11L1319.61 142.231C1319.61 141.989 1319.61 141.801 1319.61 141.667C1319.61 141.237 1319.45 140.942 1319.24 140.781C1318.89 140.512 1318.33 140.378 1317.63 140.378L1315.59 140.271L1315.13 143.976L1314.73 144.298H1313.36L1313.04 144.003L1314.24 134.445L1314.65 134.096H1319.16C1320.26 134.096 1321.12 134.31 1321.68 134.847C1322.06 135.196 1322.27 135.841 1322.27 136.539C1322.27 137.129 1322.14 137.828 1321.76 138.338H1321.74ZM1319.72 136.002C1319.45 135.814 1318.94 135.68 1318.33 135.68H1316.12L1315.69 138.901L1317.92 138.848C1318.94 138.794 1319.56 138.66 1319.86 138.123C1320.02 137.828 1320.1 137.291 1320.1 136.942C1320.1 136.485 1319.96 136.163 1319.7 136.029L1319.72 136.002Z"></path>
<path fill="white" d="M1325.33 144.862C1323.8 147.198 1321.14 148.352 1316.47 148.352C1313.17 148.352 1311.05 147.788 1309.71 146.58C1308.45 145.506 1308.02 143.868 1308.02 141.64C1308.02 139.089 1308.55 135.841 1309.9 133.693C1311.43 131.357 1314.11 130.176 1318.73 130.176C1322.03 130.176 1324.18 130.74 1325.52 131.921C1326.76 133.049 1327.27 134.659 1327.27 136.942C1327.27 139.519 1326.7 142.794 1325.36 144.889L1325.33 144.862ZM1324.21 133.451C1323.24 132.404 1321.47 131.921 1318.54 131.921C1315.61 131.921 1313.65 132.458 1312.37 133.478C1311.45 134.337 1310.89 135.492 1310.49 137.022C1310.11 138.499 1309.95 140.056 1309.95 141.506C1309.95 143.063 1310.24 144.244 1310.97 145.103C1311.94 146.15 1313.71 146.607 1316.69 146.607C1319.67 146.607 1321.6 146.07 1322.81 145.023C1323.72 144.191 1324.34 143.036 1324.74 141.506C1325.06 140.083 1325.25 138.499 1325.25 137.022C1325.25 135.438 1325.01 134.31 1324.21 133.451ZM1321.74 138.338C1321.39 138.901 1320.72 139.25 1319.72 139.358V139.761C1320.21 139.761 1320.69 139.895 1321.01 140.163C1321.41 140.432 1321.68 140.888 1321.68 141.667V142.07L1321.57 143.976L1321.33 144.271H1319.75L1319.51 144.083L1319.61 142.204V141.64C1319.61 141.21 1319.48 140.915 1319.27 140.754C1318.92 140.485 1318.35 140.351 1317.65 140.351L1315.61 140.244L1315.16 143.949L1314.76 144.271H1313.39L1313.09 143.976L1314.27 134.418L1314.67 134.069H1319.18C1320.29 134.069 1321.2 134.284 1321.71 134.821C1322.08 135.17 1322.3 135.814 1322.3 136.512C1322.3 137.103 1322.17 137.801 1321.79 138.311L1321.74 138.338ZM1319.72 136.002C1319.45 135.814 1318.94 135.68 1318.33 135.68H1316.12L1315.69 138.875L1317.92 138.821C1318.94 138.767 1319.56 138.633 1319.86 138.096C1320.02 137.801 1320.1 137.264 1320.1 136.915C1320.1 136.458 1319.96 136.136 1319.7 136.002H1319.72Z"></path>
<path fill="white" d="M1002.73 51.2974C1002.27 46.1425 1000.36 44.7733 997.678 44.0215C994.215 43.0818 976.361 39.3768 962.426 40.5312C942.586 41.981 931.417 50.4114 928.625 66.1175C925.886 81.8774 916.06 137.399 915.227 142.34C914.341 147.333 916.167 149.239 919.63 149.239H939.659C944.599 149.239 946.586 146.071 947.311 140.89C947.982 136.54 959.581 71.4603 959.581 71.4603C960.923 64.5067 962.829 61.2849 970.051 59.7008C978.186 58.4658 993.597 59.0565 997.222 59.3787C1000.26 59.6203 1003.24 58.1168 1002.73 51.2974Z"></path>
<path fill="white" d="M1074.01 41.9269C1062.95 40.2892 1046.33 39.5106 1032.96 43.6721C1010.83 50.76 1002.73 67.0837 997.973 99.3283C991.933 140.352 1010.06 148.514 1028.61 150.743C1045.98 152.837 1063.78 151.521 1076.58 141.507C1094.01 127.868 1097.15 105.369 1099.08 91.2739C1103.94 50.9211 1089.53 44.746 1074.01 41.9001V41.9269ZM1067.67 89.5287C1063.91 115.088 1061.52 135.573 1043 135.573C1028.5 135.573 1025.44 128.485 1028.96 104.403C1032.93 76.6953 1036.72 56.8814 1054.84 56.8814C1070.87 56.8814 1071.94 59.9957 1067.67 89.5287Z"></path>
<path fill="white" d="M828.803 49.4705C828.347 46.7588 826.601 45.2553 822.574 43.9129C810.466 40.0468 787.618 38.7849 772.744 43.6981C753.333 50.2491 742.54 62.1965 737.009 93.6089C731.049 131.223 743.641 144.674 760.528 149.319C778.677 154.071 803.566 149.48 816.533 141.372C822.091 137.72 820.158 127.062 813.822 128.699C803.297 131.196 794.867 132.673 784.047 131.384C782.195 131.196 779.429 130.471 778.704 130.283C765.012 127.572 766.811 112.859 770.328 93.1256C774.221 70.6 781.899 60.4782 794.196 59.109C801.418 58.3304 815.943 58.572 821.661 59.2969C826.145 59.6996 828.239 58.0082 828.722 54.5985C829.018 52.5043 829.071 50.8666 828.83 49.4973L828.803 49.4705Z"></path>
<path fill="white" d="M622.931 4.63541C622.555 2.64864 621.267 1.60156 618.501 1.60156H599.412C594.365 1.60156 592.835 3.48093 592.056 7.66925L568.322 142.957C567.409 148.112 568.832 149.508 573.88 149.508H591.868C597.023 149.508 598.204 147.897 598.983 143.279C598.983 143.279 619.79 25.577 622.448 10.4615C622.77 8.77002 623.146 6.40739 622.904 4.63541H622.931Z"></path>
<path fill="white" d="M573.907 10.5671C573.907 8.23133 573.504 6.21772 572.564 4.71422C571.598 3.13018 570.014 2.0831 567.678 1.78777C555.113 -0.0647516 511.35 0.150034 496.423 2.02941C477.387 5.0364 469.064 11.3726 465.171 33.7639L450.298 119.275C445.975 141.667 454.217 148.459 470.729 150.822C486.22 152.406 530.412 152.352 542.575 150.366C550.2 148.781 552.294 138.848 552.75 133.827C552.884 132.324 552.589 131.008 551.059 131.008C544.749 131.599 507.914 132.538 498.114 131.787C490.328 131.089 488.556 126.927 489.818 117.315L495.537 85.0976H550.495C552.804 85.0171 556.079 84.1043 557.019 80.4798L558.469 74.8416L559.059 72.5059C559.409 71.1366 559.543 69.8479 559.409 68.774C559.113 67.1094 558.039 66.0086 555.703 66.0086L498.866 66.0891L504.397 35.2943C506.491 25.6826 511.028 21.4406 518.572 20.7694C529.339 20.0445 563.301 20.7157 569.289 21.2258C570.819 21.2258 572.349 19.9908 572.859 18.3799C573.477 15.6414 573.907 12.9566 573.907 10.6208V10.5671Z"></path>
<path fill="white" d="M703.046 42.6776C691.824 39.9123 676.413 39.4558 663.016 43.671C641.806 50.2757 631.711 63.7266 626.207 94.8705C620.193 132.055 633.671 144.566 649.43 149.319C668.466 155.01 699.287 149.319 713.222 140.378C715.557 138.687 716.094 136.915 716.068 133.424C715.933 129.907 714.51 127.921 711.396 128.592C700.925 130.74 684.816 131.196 672.923 131.196C657.163 131.196 656.545 119.92 658.049 100.697H717.866C721.357 100.697 724.954 96.5082 726.7 87.7557C727.881 81.876 727.961 78.3857 727.693 73.6067C726.565 58.0616 722.135 47.8593 703.046 42.6239V42.6776ZM698.294 79.1643C697.811 83.0304 695.556 84.3191 692.468 84.3191C688.709 84.3191 664.922 84.2654 660.17 84.3191C662.264 65.955 666.291 56.5044 683.313 56.5044C692.844 56.5044 700.12 58.5449 698.294 79.1643Z"></path>
<path fill="white" d="M1164.81 4.82334C1164.78 4.52801 1164.67 4.28638 1164.59 4.04475C1164.11 2.43386 1162.77 1.60156 1160.3 1.60156H1141.32C1136.24 1.60156 1134.68 3.48093 1133.96 7.66925L1110.2 142.957C1109.26 148.112 1110.74 149.508 1115.76 149.508H1133.77C1138.93 149.508 1140.13 147.897 1140.89 143.279L1164.35 10.3272C1164.49 9.68286 1165.08 6.70272 1164.81 4.82334Z"></path>
<path fill="white" d="M1214.37 45.5241C1213.91 43.6716 1212.6 42.7051 1209.94 42.7051H1190.93C1185.88 42.7051 1184.27 44.5844 1183.57 48.7459L1167.17 143.01C1166.2 148.192 1167.65 149.561 1172.7 149.561H1190.72C1195.87 149.561 1197.03 147.896 1197.83 143.305C1197.83 143.305 1211.68 64.6132 1213.94 51.6992C1214.13 50.9206 1214.21 50.4105 1214.24 50.142C1214.58 48.2626 1214.66 46.7055 1214.4 45.551L1214.37 45.5241Z"></path>
<path fill="white" d="M915.791 45.498C915.576 43.4575 914.288 42.7058 912.113 42.7058H877.183C877.183 42.7058 880.727 22.9455 881.936 15.9382C882.204 14.4347 882.768 11.8841 882.231 10.1658C881.775 8.50122 880.539 7.61523 877.935 7.61523H858.39C853.45 7.61523 851.946 10.1121 851.275 14.2467C850.496 18.2471 834.871 109.504 833.394 117.236C831.971 124.942 832.293 130.848 835.676 136.889C838.791 142.5 844.187 145.695 849.61 146.984C857.047 148.649 878.338 150.474 889.802 149.696C895.199 149.481 896.407 149.051 899.172 146.313C902.582 142.715 904.085 137.238 904.085 133.104C904.085 131.171 903.629 130.311 900.998 130.58C894.688 130.875 881.05 130.66 874.176 129.962C867.411 129.291 863.169 125.855 864.511 115.813C865.88 108.001 874.069 60.9626 874.069 60.9626H908.676C911.093 60.9626 913.375 59.8618 914.073 56.291C914.395 54.519 914.61 53.1229 914.878 51.8073C915.147 50.4649 915.818 47.1089 915.791 45.5249V45.498Z"></path>
<path fill="white" d="M1310.08 45.5507C1309.87 43.4566 1308.58 42.678 1306.46 42.678H1271.48C1271.48 42.678 1275.05 23.0519 1276.23 16.0177C1276.39 15.2123 1276.47 14.5948 1276.55 14.192C1276.76 12.6349 1276.85 11.3998 1276.6 10.3259C1276.23 8.55393 1274.91 7.56055 1272.23 7.56055H1252.68C1247.69 7.56055 1246.18 10.0574 1245.51 14.192C1244.79 18.1924 1229.08 109.449 1227.66 117.182C1226.24 124.887 1226.56 130.794 1229.91 136.834C1233.11 142.446 1238.45 145.641 1243.88 146.929C1251.34 148.594 1272.63 150.42 1284.12 149.641C1289.46 149.426 1290.7 148.997 1293.44 146.258C1296.82 142.661 1298.38 137.184 1298.38 133.049C1298.38 131.116 1297.92 130.257 1295.26 130.525C1288.95 130.82 1275.29 130.606 1268.44 129.908C1261.68 129.236 1257.41 125.8 1258.78 115.759C1260.15 107.946 1268.31 60.9079 1268.31 60.9079H1302.94C1305.38 60.9079 1307.61 59.8071 1308.28 56.2363C1308.63 54.4912 1308.88 53.1487 1309.14 51.8063C1309.36 50.4908 1310.03 47.1348 1310.03 45.5239L1310.08 45.5507Z"></path>
<path fill="white" d="M355.873 125.827C354.852 125.558 355.121 123.061 354.96 120.538C352.221 75.889 297.934 37.8183 194.703 36.1537C148.927 35.4288 148.417 -0.144997 202.435 1.09002C279.651 2.862 363.014 61.0688 357.752 121.316C357.618 122.739 357.161 126.122 355.873 125.8V125.827Z"></path>
<path fill="white" d="M410.24 82.6821C409.408 104.51 392.359 128.592 365.619 150.903C362.987 153.051 362.155 153.185 361.726 152.81C361.242 152.353 361.538 151.655 363.498 149.078C391.151 112.591 385.567 85.0716 387.312 75.9164C390.453 59.4316 411.073 60.9619 410.24 82.6553V82.6821Z"></path>
<path fill="white" d="M346.637 112.107C345.644 112.912 343.952 111.006 343.254 110.147C305.935 65.3104 192.287 57.7929 69.6175 122.846C34.3658 141.532 12.941 143.197 3.27566 132.753C-6.38968 122.336 6.01417 104.831 32.5133 92.8835C135.503 39.5362 301.317 36.556 345.429 107.811C346.261 109.153 347.523 111.355 346.664 112.08L346.637 112.107Z"></path>
<path fill="white" d="M365.055 40.1008C383.016 78.8428 375.23 114.175 366.021 133.774C364.142 137.425 362.961 138.634 362.236 138.231C361.564 137.855 361.806 136.137 363.256 132.485C376.438 98.7641 353.698 61.9821 336.945 46.2222C297.505 9.0912 343.522 -6.34649 365.055 40.1008Z"></path>
</g>
<defs>
<clipPath id="clip0_1652_13184">
<rect transform="translate(0 0.5)" fill="white" height="152.498" width="1327.24"></rect>
</clipPath>
</defs>
</svg>
